<svg width="30" height="30" viewBox="0 0 30 30" fill="none" xmlns="http://www.w3.org/2000/svg">
<path d="M7.39659 8.62432C7.31203 7.42623 7.57777 6.24606 8.28139 5.29684C8.89139 4.43632 9.6856 3.96636 10.6429 3.69172C11.4492 3.4525 11.9776 3.74561 12.2102 4.64204C12.5424 5.98224 13.0165 7.3225 13.1886 8.73361C13.243 9.35485 12.8413 10.2332 12.4065 10.6856C11.3163 11.7589 11.5428 12.5399 12.3702 14.1643C12.6269 14.6881 13.0346 15.5934 13.8288 16.7919C14.6563 17.9992 15.0941 18.6472 16.1571 18.0975C17.3379 17.5035 18.1985 17.8855 19.0893 18.8444C19.6933 19.5369 20.3577 20.1318 20.9616 20.8243C21.8344 21.8542 21.7951 22.5641 21.1126 23.2915C19.8836 24.6309 17.8543 25.0736 16.3444 24.1766C15.5109 23.6881 14.6804 23.0487 14.0191 22.303C11.105 18.9825 9.00315 15.1212 7.73784 10.7632C7.53551 10.0265 7.44189 9.28104 7.39659 8.62432Z" stroke="#FE7865" stroke-width="2" stroke-miterlimit="10"/>
</svg>
